# xmcd CD database file
#
# Track frame offsets:
#	150
#	24087
#	41860
#	62801
#	87043
#	108368
#	127473
#	147510
#	167765
#	193090
#	212867
#	231538
#	254195
#	276756
#	295509
#
# Disc length: 4556 seconds
#
# Revision: 0
# Processed by: cddbd v1.5.2PL0 Copyright (c) Steve Scherf et al.
# Submitted via: CDex 1.70beta2
#
DISCID=ef11ca0f
DTITLE=Various Artist - Next Jazz Fusion
DYEAR=2002
DGENRE=Jazz
TTITLE0=Kevin Toney Feat Kussey Love - So Good
TTITLE1=Paul Taylor - Avenue
TTITLE2=Brian Simpson - Saturday Cool
TTITLE3=Norman Brown - Any Love
TTITLE4=Peter White - Perfect Moment
TTITLE5=Najee - Still in love
TTITLE6=Jimmy Sommers Feat Paul Brown - Happy Hour
TTITLE7=Jonathan Butler - Take good care  of me
TTITLE8=Pamela Williams Ft Patti Labelle and Teena Marie - Secret garden
TTITLE9=Streetwize - Change me
TTITLE10=Eric Darius - Secret Soul
TTITLE11=Will Downing - Fantasy (Spending time with you)
TTITLE12=Candy Delfer - So what
TTITLE13=Walter Beasley - I wanna know
TTITLE14=Art of noise - Moments of love
EXTD=YEAR: 2002
EXTT0=
EXTT1=
EXTT2=
EXTT3=
EXTT4=
EXTT5=
EXTT6=
EXTT7=
EXTT8=
EXTT9=
EXTT10=
EXTT11=
EXTT12=
EXTT13=
EXTT14=
PLAYORDER=
